<svg width="1280" height="720" viewBox="0 0 1280 720" fill="none" xmlns="http://www.w3.org/2000/svg">
  <rect width="1280" height="720" fill="#EFE7DC"/>
  <circle cx="142" cy="106" r="128" fill="#0F766E" fill-opacity="0.16"/>
  <circle cx="1128" cy="602" r="180" fill="#F59E0B" fill-opacity="0.16"/>
  <rect x="150" y="86" width="980" height="548" rx="28" fill="#FFF9F2"/>
  <rect x="150.5" y="86.5" width="979" height="547" rx="27.5" stroke="#FFFFFF" stroke-opacity="0.7"/>
  <text x="212" y="152" fill="#0F766E" font-family="Manrope, sans-serif" font-size="18" font-weight="700" letter-spacing="2">REACT EVENTS LAB</text>
  <text x="212" y="210" fill="#1E2430" font-family="Fraunces, serif" font-size="48" font-weight="700">Password Input Security Monitor</text>
  <text x="212" y="248" fill="#5D6675" font-family="Manrope, sans-serif" font-size="24">Track password typing cadence and submit-button hover movement.</text>
  <rect x="212" y="294" width="544" height="176" rx="22" fill="#FFFFFF"/>
  <rect x="212.5" y="294.5" width="543" height="175" rx="21.5" stroke="#1E2430" stroke-opacity="0.12"/>
  <text x="244" y="340" fill="#1E2430" font-family="Fraunces, serif" font-size="30" font-weight="700">PasswordInput</text>
  <text x="244" y="374" fill="#5D6675" font-family="Manrope, sans-serif" font-size="18">Collects a password value and reports typing activity.</text>
  <text x="244" y="411" fill="#1E2430" font-family="Manrope, sans-serif" font-size="18" font-weight="700">Password</text>
  <rect x="244" y="426" width="480" height="52" rx="14" fill="#FFFFFF" stroke="#0F766E" stroke-opacity="0.24"/>
  <text x="268" y="459" fill="#8B95A3" font-family="Manrope, sans-serif" font-size="18">Enter your password</text>
  <rect x="212" y="490" width="544" height="116" rx="22" fill="#FFFFFF"/>
  <rect x="212.5" y="490.5" width="543" height="115" rx="21.5" stroke="#1E2430" stroke-opacity="0.12"/>
  <text x="244" y="536" fill="#1E2430" font-family="Fraunces, serif" font-size="30" font-weight="700">SubmitButton</text>
  <text x="244" y="570" fill="#5D6675" font-family="Manrope, sans-serif" font-size="18">Handles mouse enter and mouse leave events.</text>
  <rect x="244" y="584" width="228" height="52" rx="26" fill="url(#paint0_linear_1_2)"/>
  <text x="286" y="616" fill="#FFFFFF" font-family="Manrope, sans-serif" font-size="18" font-weight="800">Submit Password</text>
  <rect x="788" y="294" width="310" height="150" rx="22" fill="#FFFFFF"/>
  <rect x="788.5" y="294.5" width="309" height="149" rx="21.5" stroke="#1E2430" stroke-opacity="0.12"/>
  <text x="820" y="338" fill="#0F766E" font-family="Manrope, sans-serif" font-size="16" font-weight="700">COMPONENT TREE</text>
  <text x="820" y="378" fill="#1E2430" font-family="Manrope, sans-serif" font-size="20">• App</text>
  <text x="820" y="410" fill="#1E2430" font-family="Manrope, sans-serif" font-size="20">• PasswordInput</text>
  <text x="820" y="442" fill="#1E2430" font-family="Manrope, sans-serif" font-size="20">• SubmitButton</text>
  <rect x="788" y="462" width="310" height="144" rx="22" fill="#FFFFFF"/>
  <rect x="788.5" y="462.5" width="309" height="143" rx="21.5" stroke="#1E2430" stroke-opacity="0.12"/>
  <text x="820" y="506" fill="#1E2430" font-family="Fraunces, serif" font-size="28" font-weight="700">Lab Notes</text>
  <text x="820" y="542" fill="#5D6675" font-family="Manrope, sans-serif" font-size="18">• Change event logs password entry</text>
  <text x="820" y="572" fill="#5D6675" font-family="Manrope, sans-serif" font-size="18">• Mouse enter logs hover entry</text>
  <text x="820" y="602" fill="#5D6675" font-family="Manrope, sans-serif" font-size="18">• Mouse leave logs hover exit</text>
  <defs>
    <linearGradient id="paint0_linear_1_2" x1="244" y1="584" x2="472" y2="636" gradientUnits="userSpaceOnUse">
      <stop stop-color="#0F766E"/>
      <stop offset="1" stop-color="#0891B2"/>
    </linearGradient>
  </defs>
</svg>